<svg xmlns="http://www.w3.org/2000/svg" width="50" height="50" viewBox="0 0 50 50">
  <path class="cls-1" d="M836.9,2410.16a1.1,1.1,0,0,0-1.1,1.09A22.8,22.8,0,1,1,813,2388.68a23.08,23.08,0,0,1,10.643,2.61,1.109,1.109,0,0,0,1.489-.45,1.09,1.09,0,0,0-.458-1.48A25.263,25.263,0,0,0,813,2386.5a24.751,24.751,0,1,0,25,24.75A1.1,1.1,0,0,0,836.9,2410.16Zm-15.131-16a1.09,1.09,0,0,0,.023,2.18h0.024l8.066-.18a1.068,1.068,0,0,0,.772-0.33,1.092,1.092,0,0,0,.306-0.78l-0.173-7.98a1.1,1.1,0,0,0-2.2.04l0.15,6.9Zm-5.74,25.76a1.091,1.091,0,0,0,1.1-1.09v-3.71h2.634a1.1,1.1,0,1,0,0-2.19h-2.634v-9.26a1.1,1.1,0,0,0-.757-1.04,1.117,1.117,0,0,0-1.23.39l-7.723,10.36a1.085,1.085,0,0,0-.1,1.14,1.119,1.119,0,0,0,.983.6h6.621v3.71A1.09,1.09,0,0,0,816.024,2419.92Zm-5.54-6.99,4.439-5.95v5.95h-4.439Zm-14.567,4.52a1.086,1.086,0,0,0-.232,1.19,1.11,1.11,0,0,0,1.016.67h9.714a1.09,1.09,0,1,0,0-2.18h-7.079l5.8-5.82a5.071,5.071,0,0,0,1.1-5.6,4.979,4.979,0,0,0-4.588-3.13h-0.1a5.932,5.932,0,0,0-5.958,5.9,1.1,1.1,0,0,0,2.2,0,3.743,3.743,0,0,1,3.756-3.72h0.062a2.783,2.783,0,0,1,2.586,1.77,2.954,2.954,0,0,1-.633,3.25Zm33.382,2.47a1.09,1.09,0,0,0,1.1-1.09v-2.09a3.867,3.867,0,0,0-3.875-3.84h-0.056a3.9,3.9,0,0,0-1.673.38v-5.26a1.1,1.1,0,0,0-2.2,0v10.81a1.1,1.1,0,0,0,2.2,0v-2.09a1.672,1.672,0,0,1,1.673-1.66h0.056a1.672,1.672,0,0,1,1.673,1.66v2.09A1.091,1.091,0,0,0,829.3,2419.92Z" transform="translate(-788 -2386)"/>
</svg>
