<svg xmlns="http://www.w3.org/2000/svg" width="50" height="47" viewBox="0 0 50 47">
  <path class="cls-1" d="M523.042,2423.62a3.57,3.57,0,0,0-3.542,3.59,1.026,1.026,0,1,0,2.052,0,1.491,1.491,0,1,1,1.49,1.51,1.04,1.04,0,0,0,0,2.08A3.59,3.59,0,0,0,523.042,2423.62Zm21.034-11.58-15.018,8.85a8.548,8.548,0,0,0-8.465-2.11l-15.233-27.24a4.985,4.985,0,0,0-6.853-1.86,5.121,5.121,0,0,0-1.836,6.94l1.777-1.04a3.028,3.028,0,0,1,1.085-4.1,2.941,2.941,0,0,1,4.046,1.09l15.118,27.04a8.7,8.7,0,1,0,11.676,2.91l14.736-8.69Zm-21.034,21.88a6.711,6.711,0,1,1,6.622-6.71A6.674,6.674,0,0,1,523.042,2433.92ZM546,2409.2l-5.684-9.98a1.03,1.03,0,0,0-1.4-.38,1.049,1.049,0,0,0-.377,1.42l4.658,8.18-13.4,7.84-7.74-13.58,14.294-8.36a1.05,1.05,0,0,0,.375-1.42,1.013,1.013,0,0,0-1.4-.38l-16.071,9.4,9.791,17.18Zm-9.756-6.12a1.047,1.047,0,0,0-.726-1.28l-4.968-1.35a0.356,0.356,0,0,1-.1-0.02h-0.018c-0.028,0-.054-0.01-0.082-0.01h-0.108a0.3,0.3,0,0,0-.093.01h0a0.342,0.342,0,0,0-.1.02h0a0.316,0.316,0,0,0-.1.02,0.017,0.017,0,0,1-.018.01l-0.076.03c-0.03.02-.061,0.03-0.092,0.05l-0.085.06a0.243,0.243,0,0,0-.064.05,0.013,0.013,0,0,0-.014.01,0.324,0.324,0,0,0-.068.07h0c-0.023.02-.043,0.05-0.063,0.07,0,0,0,.01,0,0.01-0.018.02-.035,0.05-0.051,0.07s0,0.01-.006.01a0.425,0.425,0,0,0-.04.08,0.07,0.07,0,0,0-.008.01,0.724,0.724,0,0,0-.032.07,0.05,0.05,0,0,1-.008.02c-0.012.04-.022,0.07-0.032,0.1l-1.33,5.03a1.046,1.046,0,0,0,.725,1.28,1.221,1.221,0,0,0,.267.03,1.021,1.021,0,0,0,.99-0.77l0.69-2.61,3.443,6.04a1.01,1.01,0,0,0,.89.52,1.023,1.023,0,0,0,.888-1.55l-3.444-6.05,2.576,0.7A1.025,1.025,0,0,0,536.244,2403.08Z" transform="translate(-496 -2389)"/>
</svg>
