<svg xmlns="http://www.w3.org/2000/svg" width="11.125" height="11.16" viewBox="0 0 11.125 11.16">
  <defs>
    <style>
      .cls-1 {
        fill: #3a54d6;
        fill-rule: evenodd;
      }
    </style>
  </defs>
  <path id="_" data-name="" class="cls-1" d="M851.625,2567.98a0.461,0.461,0,0,1-.652,0l-0.739-.74a0.467,0.467,0,0,1,0-.66l2.225-2.22-2.225-2.23a0.455,0.455,0,0,1,0-.65l0.739-.74a0.461,0.461,0,0,1,.652,0l3.291,3.29a0.469,0.469,0,0,1,0,.66Zm5.936-3.62a5.567,5.567,0,1,0-5.566,5.57A5.573,5.573,0,0,0,857.561,2564.36Z" transform="translate(-846.438 -2558.78)"/>
</svg>
