<svg xmlns="http://www.w3.org/2000/svg" width="41" height="50" viewBox="0 0 41 50">
  <path class="cls-1" d="M1124.63,2399.38l-16.12-13.16a0.984,0.984,0,0,0-1.04-.13,1,1,0,0,0-.56.9v9.11a0.98,0.98,0,1,0,1.96,0v-7.04l13.59,11.09-13.59,11.08v-7.04a0.984,0.984,0,0,0-.98-0.99h-15.95v-6.11h8.63a0.99,0.99,0,0,0,0-1.98h-9.62a0.99,0.99,0,0,0-.98.99v8.09a0.984,0.984,0,0,0,.98.99h15.96v8.13a0.986,0.986,0,0,0,.56.89,0.9,0.9,0,0,0,.42.1,1.02,1.02,0,0,0,.62-0.22l16.13-13.16a0.992,0.992,0,0,0,.36-0.77A0.971,0.971,0,0,0,1124.63,2399.38Zm-6.58,17.44h-11.98a0.99,0.99,0,0,0,0,1.98h10.99v6.1h-15.95a0.99,0.99,0,0,0-.98.99v7.05l-13.59-11.09,13.59-11.09v7.05a0.98,0.98,0,1,0,1.96,0v-9.12a1.012,1.012,0,0,0-.56-0.9,0.984,0.984,0,0,0-1.04.13l-16.13,13.16a1,1,0,0,0,0,1.54l16.13,13.16a0.961,0.961,0,0,0,.62.22,0.9,0.9,0,0,0,.42-0.1,0.986,0.986,0,0,0,.56-0.89v-8.13h15.96a0.984,0.984,0,0,0,.98-0.99v-8.08A0.984,0.984,0,0,0,1118.05,2416.82Z" transform="translate(-1084 -2386)"/>
</svg>
