<svg xmlns="http://www.w3.org/2000/svg" width="17" height="21" viewBox="0 0 17 21">
  <defs>
    <style>
      .cls-1 {
        fill: #fff;
        fill-rule: evenodd;
      }
    </style>
  </defs>
  <path class="cls-1" d="M597.493,64A8.47,8.47,0,0,0,589,72.42,8.233,8.233,0,0,0,589.15,74c0,0.031.022,0.123,0.058,0.282a8.312,8.312,0,0,0,.568,1.66c0.916,2.136,2.928,5.418,7.344,8.933a0.607,0.607,0,0,0,.756,0c4.411-3.515,6.428-6.8,7.343-8.933a8.156,8.156,0,0,0,.569-1.66c0.036-.159.053-0.251,0.058-0.282A8.417,8.417,0,0,0,597.493,64Zm7.162,9.8c0,0.01,0,.018,0,0.027s-0.018.088-.04,0.189v0.009a7.048,7.048,0,0,1-.493,1.436,0.143,0.143,0,0,0-.009.018,22.065,22.065,0,0,1-6.616,8.176,22.07,22.07,0,0,1-6.615-8.176,0.143,0.143,0,0,0-.009-0.018,7.453,7.453,0,0,1-.493-1.436V74.01c-0.026-.1-0.035-0.167-0.04-0.189s0-.017,0-0.031a7.118,7.118,0,0,1-.134-1.374,7.3,7.3,0,0,1,14.59,0A7.1,7.1,0,0,1,604.655,73.794Zm-7.162-6.63a5.348,5.348,0,1,0,5.394,5.348A5.379,5.379,0,0,0,597.493,67.165Zm0,9.506a4.158,4.158,0,1,1,4.194-4.159A4.181,4.181,0,0,1,597.493,76.671Z" transform="translate(-589 -64)"/>
</svg>
