<svg xmlns="http://www.w3.org/2000/svg" width="23.97" height="24" viewBox="0 0 23.97 24">
  <defs>
    <style>
      .cls-1 {
        fill: #fff;
        fill-rule: evenodd;
      }
    </style>
  </defs>
  <path class="cls-1" d="M1230.98,78.868a2.35,2.35,0,0,0-1.71-.785,2.445,2.445,0,0,0-1.74.78l-1.6,1.6-0.4-.2c-0.18-.09-0.35-0.177-0.5-0.269a17.4,17.4,0,0,1-4.17-3.8,10.055,10.055,0,0,1-1.37-2.159c0.41-.38.8-0.775,1.17-1.155,0.15-.142.29-0.289,0.43-0.431a2.316,2.316,0,0,0,0-3.506l-1.38-1.383c-0.16-.157-0.33-0.32-0.48-0.482-0.3-.315-0.62-0.638-0.95-0.943a2.4,2.4,0,0,0-1.7-.745,2.5,2.5,0,0,0-1.73.745c0,0.006,0,.006-0.01.01l-1.72,1.738a3.7,3.7,0,0,0-1.1,2.357,8.67,8.67,0,0,0,.65,3.76,21.807,21.807,0,0,0,3.88,6.467,23.918,23.918,0,0,0,7.95,6.218A12.488,12.488,0,0,0,1228.97,88c0.1,0,.21.009,0.31,0.009a3.818,3.818,0,0,0,2.93-1.256,0.043,0.043,0,0,0,.02-0.025,12.479,12.479,0,0,1,.89-0.916c0.22-.209.44-0.426,0.66-0.654a2.543,2.543,0,0,0,.77-1.755,2.444,2.444,0,0,0-.78-1.737Zm1.82,5.336c-0.01,0-.01.006,0,0-0.2.213-.4,0.407-0.62,0.618a12.57,12.57,0,0,0-.98,1.015,2.448,2.448,0,0,1-1.91.806c-0.08,0-.16,0-0.23,0a11.019,11.019,0,0,1-3.96-1.187,22.6,22.6,0,0,1-7.49-5.858,20.428,20.428,0,0,1-3.65-6.076,7.062,7.062,0,0,1-.57-3.172,2.323,2.323,0,0,1,.7-1.5l1.73-1.729a1.155,1.155,0,0,1,.77-0.359,1.075,1.075,0,0,1,.74.355,0.042,0.042,0,0,0,.02.015c0.3,0.288.6,0.587,0.91,0.907,0.16,0.162.32,0.324,0.48,0.491l1.39,1.383a0.975,0.975,0,0,1,0,1.571c-0.15.147-.29,0.294-0.44,0.436-0.43.436-.83,0.841-1.27,1.237-0.01.01-.02,0.015-0.03,0.025a1.026,1.026,0,0,0-.26,1.15c0,0.016.01,0.031,0.01,0.046a11.158,11.158,0,0,0,1.64,2.671l0.01,0a18.5,18.5,0,0,0,4.5,4.094,6.042,6.042,0,0,0,.63.339c0.18,0.092.35,0.179,0.5,0.269,0.02,0.011.04,0.026,0.06,0.037a1.09,1.09,0,0,0,.5.125,1.067,1.067,0,0,0,.77-0.349l1.74-1.733a1.135,1.135,0,0,1,.77-0.38,1.047,1.047,0,0,1,.73.371s0,0,.01.009l2.79,2.792A1,1,0,0,1,1232.8,84.2Zm-7.83-14.5a6.536,6.536,0,0,1,5.32,5.311,0.687,0.687,0,0,0,.67.567,1.025,1.025,0,0,0,.12-0.01,0.687,0.687,0,0,0,.57-0.79,7.9,7.9,0,0,0-6.44-6.426,0.693,0.693,0,0,0-.79.558A0.675,0.675,0,0,0,1224.97,69.706Zm11.02,4.879a12.971,12.971,0,0,0-10.59-10.58,0.683,0.683,0,1,0-.22,1.347,11.6,11.6,0,0,1,9.46,9.457,0.688,0.688,0,0,0,.68.567c0.04,0,.08-0.006.12-0.01A0.664,0.664,0,0,0,1235.99,74.585Z" transform="translate(-1212.03 -64)"/>
</svg>
