<svg xmlns="http://www.w3.org/2000/svg" width="50" height="37" viewBox="0 0 50 37">
  <path class="cls-1" d="M1416.49,2393.99h-27.94a5.559,5.559,0,0,0-5.51,5.6v1.39a1.07,1.07,0,1,0,2.14,0v-1.39a3.4,3.4,0,0,1,3.37-3.43h27.94a3.4,3.4,0,0,1,3.37,3.43v4.07h-42.35a5.557,5.557,0,0,0-5.51,5.59v16.16a5.557,5.557,0,0,0,5.51,5.59h27.94a5.557,5.557,0,0,0,5.51-5.59v-12.86h8.9v3.2a3.4,3.4,0,0,1-3.37,3.42h-3.01a1.085,1.085,0,0,0,0,2.17h3.01a5.557,5.557,0,0,0,5.51-5.59v-16.16A5.559,5.559,0,0,0,1416.49,2393.99Zm-2.77,16.39h-2.37a0.976,0.976,0,0,0,.29-0.21l4.28-4.34h2.25l-4.3,4.36A1.393,1.393,0,0,0,1413.72,2410.38Zm-2.91-2.43a5.628,5.628,0,0,0-1.01-2.12h3.09Zm-1.99,17.46a3.4,3.4,0,0,1-3.37,3.42h-27.94a3.4,3.4,0,0,1-3.37-3.42v-16.16a3.4,3.4,0,0,1,3.37-3.42h27.94a3.4,3.4,0,0,1,3.37,3.42v16.16Zm7.89-15.03,2.82-2.87v2.87h-2.82Zm-30.42,9.43a1.073,1.073,0,0,0-1.07,1.08v3.39h-6.61v-5.3h4.57a1.085,1.085,0,0,0,0-2.17h-5.64a1.073,1.073,0,0,0-1.07,1.08v7.48a1.073,1.073,0,0,0,1.07,1.08h8.75a1.073,1.073,0,0,0,1.07-1.08v-4.48A1.073,1.073,0,0,0,1386.29,2419.81Zm18.74-.64h-12.49a1.085,1.085,0,0,0,0,2.17h12.49A1.085,1.085,0,0,0,1405.03,2419.17Zm0,5.11h-12.49a1.085,1.085,0,0,0,0,2.17h12.49A1.085,1.085,0,0,0,1405.03,2424.28Z" transform="translate(-1372 -2394)"/>
</svg>
