<svg xmlns="http://www.w3.org/2000/svg" width="20" height="20" viewBox="0 0 20 20">
  <defs>
    <style>
      .cls-1 {
        fill: #3a54d6;
        fill-rule: evenodd;
      }
    </style>
  </defs>
  <path class="cls-1" d="M911.411,1542.27a9.812,9.812,0,0,0,1.589-5.36,10,10,0,0,0-20,0,9.8,9.8,0,0,0,1.566,5.32,9.965,9.965,0,0,0,4.066,3.59l0.721-1.47a8.216,8.216,0,0,1-4.7-7.44,8.351,8.351,0,1,1,13.125,6.78l-2.912-2.9V1547H911.1l-2.142-2.13A10.007,10.007,0,0,0,911.411,1542.27Z" transform="translate(-893 -1527)"/>
</svg>
