<?xml version="1.0" encoding="utf-8"?>
<!-- Generator: Adobe Illustrator 21.1.0, SVG Export Plug-In . SVG Version: 6.00 Build 0)  -->
<svg version="1.1" id="Слой_1" xmlns="http://www.w3.org/2000/svg" xmlns:xlink="http://www.w3.org/1999/xlink" x="0px" y="0px"
	 viewBox="0 0 18 18" style="enable-background:new 0 0 18 18;" xml:space="preserve">
<path d="M5.4,14.4c-1,0-1.8,0.8-1.8,1.8c0,1,0.8,1.8,1.8,1.8s1.8-0.8,1.8-1.8c0,0,0,0,0,0C7.1,15.2,6.4,14.4,5.4,14.4
	C5.4,14.4,5.4,14.4,5.4,14.4z M14.3,14.4c-1,0-1.8,0.8-1.8,1.8c0,1,0.8,1.8,1.8,1.8s1.8-0.8,1.8-1.8c0,0,0,0,0,0
	C16.1,15.2,15.3,14.4,14.3,14.4C14.3,14.4,14.3,14.4,14.3,14.4z M5.5,11.5l0-0.1l0.8-1.5H13c0.7,0,1.3-0.4,1.6-0.9L18,2.7l-1.6-0.9
	h0l-1,1.8L13,8.1H6.7L6.6,7.9l-2-4.3L3.8,1.8L2.9,0H0v1.8h1.8L5,8.6l-1.2,2.2c-0.1,0.3-0.2,0.6-0.2,0.9c0,1,0.8,1.8,1.8,1.8h10.7
	v-1.8H5.7C5.6,11.7,5.5,11.6,5.5,11.5z M6,14v-0.5h9V14H6z M15.8,2 M4.2,2l11.7,0l-1,2H5.2"/>
</svg>
