<svg xmlns="http://www.w3.org/2000/svg" width="17" height="18" viewBox="0 0 17 18">
  <path class="cls-1" d="M962.432,572.856h1.687v-2.571h2.53v-1.714h-2.53V566h-1.687v2.572H959.9v1.714h2.53v2.571Zm-3.373,7.715a1.715,1.715,0,1,0,1.687,1.714A1.7,1.7,0,0,0,959.059,580.571Zm8.433,0a1.715,1.715,0,1,0,1.686,1.714A1.7,1.7,0,0,0,967.492,580.571Zm-8.29-2.786,0.026-.1,0.759-1.4h6.282a1.671,1.671,0,0,0,1.475-.883L971,569.393l-1.468-.822h-0.008l-0.928,1.714-2.327,4.286h-5.92l-0.109-.232-1.889-4.054-0.8-1.714-0.793-1.715H954v1.715h1.686l3.036,6.506-1.139,2.1a1.674,1.674,0,0,0-.21.822,1.7,1.7,0,0,0,1.686,1.715h10.119V578h-9.765A0.216,0.216,0,0,1,959.2,577.785Z" transform="translate(-954 -566)"/>
</svg>
